<?xml version="1.0" encoding="utf-8"?>
<!-- Generator: Adobe Illustrator 28.3.0, SVG Export Plug-In . SVG Version: 6.00 Build 0)  -->
<svg version="1.1" id="Outline" xmlns="http://www.w3.org/2000/svg" xmlns:xlink="http://www.w3.org/1999/xlink" x="0px" y="0px"
	 viewBox="0 0 684 512" style="enable-background:new 0 0 684 512;" xml:space="preserve">
<style type="text/css">
	.st0{fill:#0B1117;}
	.st1{font-family:'Quicksand-Light';}
	.st2{font-size:26.2331px;}
</style>
<g>
	<path class="st0" d="M288.2,228.2c-0.1,1.4-0.1,2.5-0.2,3.8H130.8c0-1.3-0.1-2.4-0.2-3.8H288.2z"/>
	<path class="st0" d="M133.2,240c3.1,0,6.1,0,9.2-0.2c1.7-0.1,2.3,0.6,2.3,2.3c0,12.8,0,25.6,0,38.4c0,5.5,0,11.1,0,16.9h-11.1
		c0-1,0-1.9,0-2.9c0-17.1,0-34.1-0.1-51.2c0-1.2-0.1-2.3-0.2-3.5L133.2,240L133.2,240z"/>
	<path class="st0" d="M172.6,240v57.5h-11.2V240l-0.1,0.1C165.1,240.1,168.9,240.1,172.6,240L172.6,240L172.6,240z"/>
	<path class="st0" d="M286.4,240.5c-0.1,1.1-0.4,2.1-0.4,3.2c0,16.7,0,33.4,0,50.1c0,1.2,0,2.3,0,3.7h-10.8v-57.6
		C278.9,240.3,282.7,239.1,286.4,240.5L286.4,240.5L286.4,240.5z"/>
	<path class="st0" d="M200.4,239.9c0,19,0,37.9,0,56.9c0,0.2-0.1,0.4-0.1,0.8h-10.7V240L200.4,239.9L200.4,239.9z"/>
	<path class="st0" d="M229.5,239.8c0.1,0.6,0.2,1.2,0.2,1.7c0,17.9,0,35.9,0,53.9c0,0.7-0.1,1.3-0.1,2.1h-10.9v-57.6L229.5,239.8
		L229.5,239.8L229.5,239.8z"/>
	<path class="st0" d="M257.6,239.8c0,1.2,0.1,2.3,0.1,3.5c0,17.1,0,34.1,0,51.2c0,1,0,1.9,0,3H247v-57.6L257.6,239.8L257.6,239.8
		L257.6,239.8z"/>
	<path class="st0" d="M99.7,317.1h2.3c73.9,0,147.8,0,221.7,0c1.6,0,3.1-0.1,2.3,2.4c-0.5,0-1.1,0.1-1.7,0.1c-73.3,0-146.6,0-220,0
		c-1,0-2-0.1-3.1,0C99.6,319.6,99.1,318.9,99.7,317.1L99.7,317.1z"/>
	<path class="st0" d="M131,225.9c-0.7-2.1,0-2.6,1.9-2.6c51,0,102,0,153,0c0.6,0,1.2,0,1.9,0.1v2.5L131,225.9L131,225.9z"/>
	<path class="st0" d="M118.7,307.5h187.2v2.2c-0.9,0-1.7,0-2.5,0c-60.8,0-121.6,0-182.3,0C119.8,309.7,117.9,310.1,118.7,307.5
		L118.7,307.5z"/>
	<path class="st0" d="M270.6,302.7c1.2-0.2,2.1-0.3,3.1-0.4c-0.6-1-1.1-1.9-1.8-3.2h16.9c-0.3,1-0.5,2-0.9,3.2
		c0.6,0.1,1.4,0.2,2.3,0.3v2.5h-19.5C270.7,304.3,270.6,303.6,270.6,302.7z"/>
	<path class="st0" d="M129.1,305v-2.4c1-0.1,1.9-0.3,2.9-0.4c-0.6-1-1-1.8-1.8-3h17.2c-0.5,1.1-0.8,2-1.3,3c0.6,0.1,1.5,0.3,2.4,0.4
		v2.3H129.1L129.1,305z"/>
	<path class="st0" d="M185.3,305v-2.4c1-0.1,1.9-0.2,3-0.3c-0.6-1-1.1-1.9-1.9-3.3c5.6,0,10.6,0,15.7,0c0.5,0,1.4,0.5,1.3,0.6
		c-0.2,0.8-0.5,1.6-0.9,2.5c0.6,0.1,1.4,0.2,2.4,0.3c0,0.7,0.1,1.4,0.1,2.4L185.3,305L185.3,305z"/>
	<path class="st0" d="M262,305.1h-19.5c0-0.8-0.1-1.5-0.1-2.4c1.1-0.1,2-0.2,3.1-0.4c-0.6-1-1.1-1.8-1.9-3.1h17
		c-0.2,0.9-0.5,1.9-0.8,3.2c0.5,0,1.3,0.1,2.2,0.2V305.1z"/>
	<path class="st0" d="M175.7,299.2c-0.5,1.1-0.8,2-1.3,3c0.6,0.1,1.4,0.2,2.3,0.4c0,0.7,0.1,1.4,0.1,2.3h-19.6
		c0-0.7-0.1-1.4-0.2-2.3c1-0.1,2-0.2,3.1-0.3c-0.5-1-1-1.9-1.8-3.1H175.7z"/>
	<path class="st0" d="M214.3,302.6c1-0.1,1.9-0.2,2.8-0.3c-0.5-1-1-1.9-1.8-3.1h17c-0.3,1-0.5,2-0.9,3.2c0.5,0,1.3,0.1,2.3,0.2v2.5
		h-19.5L214.3,302.6L214.3,302.6z"/>
	<path class="st0" d="M257.3,214.6h-93.9c0.6-0.3,0.9-0.6,1.3-0.7c15.1-5.7,30.2-11.4,45.4-17c0.8-0.3,1.9-0.5,2.7-0.2
		c14.9,5.8,29.7,11.6,44.5,17.5C257.4,214.3,257.4,214.4,257.3,214.6L257.3,214.6z"/>
	<path class="st0" d="M147.4,220.4c4.3-1.7,7.8-3.3,12-3.3c34.3,0.1,68.6,0,102.9,0.2c3.3,0,6.6,1.6,10,2.4c0,0.3-0.1,0.5-0.2,0.7
		H147.4z"/>
	<path class="st0" d="M133.1,220.4c14.1-5.3,28.2-10.5,42.4-15.8c11.6-4.3,23.2-8.6,34.8-12.9c0.9-0.3,2.2-0.4,3.1,0
		c24,9.4,47.9,18.9,71.9,28.3c0.4,0.2,0.8,0.3,1.2,0.7c-2.8,0.3-5.5,0.2-8.3-1c-17-6.9-34.1-13.6-51.2-20.4c-4.5-1.8-9-3.6-13.5-5.3
		c-0.9-0.3-2.2-0.5-3-0.1c-23.4,8.7-46.9,17.6-70.3,26.3c-2.1,0.8-4.5,0.7-6.8,1c0-0.3,0-0.5,0-0.7L133.1,220.4z"/>
	<g>
		<circle class="st0" cx="273.8" cy="236.7" r="3.6"/>
		<circle class="st0" cx="287.7" cy="236.7" r="3.6"/>
	</g>
	<g>
		<circle class="st0" cx="245.4" cy="236.7" r="3.6"/>
		<circle class="st0" cx="259.2" cy="236.7" r="3.6"/>
	</g>
	<g>
		<circle class="st0" cx="217" cy="236.7" r="3.6"/>
		<circle class="st0" cx="230.8" cy="236.7" r="3.6"/>
	</g>
	<g>
		<circle class="st0" cx="188.6" cy="236.7" r="3.6"/>
		<circle class="st0" cx="202.4" cy="236.7" r="3.6"/>
	</g>
	<g>
		<circle class="st0" cx="160.1" cy="236.7" r="3.6"/>
		<circle class="st0" cx="174" cy="236.7" r="3.6"/>
	</g>
	<g>
		<circle class="st0" cx="131.7" cy="236.7" r="3.6"/>
		<circle class="st0" cx="145.6" cy="236.7" r="3.6"/>
	</g>
</g>
<text transform="matrix(1 0 0 1 356.5059 263.1914)" class="st0 st1 st2"> </text>
<g>
	<path class="st0" d="M347.6,227.9c0.2,0.2,0.3,0.4,0.3,0.7c0,0.3-0.1,0.5-0.3,0.7c-0.2,0.2-0.4,0.3-0.8,0.3h-7.2v21.4
		c0,0.3-0.1,0.6-0.3,0.8c-0.2,0.2-0.5,0.3-0.8,0.3c-0.3,0-0.6-0.1-0.8-0.3c-0.2-0.2-0.3-0.4-0.3-0.8v-21.4h-7.2
		c-0.3,0-0.6-0.1-0.8-0.3c-0.2-0.2-0.3-0.4-0.3-0.7c0-0.3,0.1-0.5,0.3-0.7c0.2-0.2,0.4-0.3,0.8-0.3h16.6
		C347.2,227.6,347.4,227.7,347.6,227.9z"/>
	<path class="st0" d="M362.5,242.9c-0.2,0.2-0.5,0.3-0.7,0.3h-13.2c0,1.4,0.3,2.7,0.9,3.8c0.6,1.1,1.4,2,2.4,2.6
		c1.1,0.6,2.3,1,3.8,1c1.1,0,2.1-0.2,3-0.7c0.9-0.5,1.6-1.1,2.1-1.8c0.3-0.2,0.5-0.3,0.7-0.3c0.2,0,0.4,0.1,0.6,0.3
		c0.2,0.2,0.3,0.4,0.3,0.6c0,0.3-0.1,0.5-0.4,0.7c-0.7,0.9-1.7,1.7-2.8,2.2c-1.1,0.6-2.3,0.9-3.6,0.9c-1.8,0-3.4-0.4-4.8-1.2
		c-1.4-0.8-2.4-1.8-3.2-3.2c-0.8-1.4-1.2-3-1.2-4.8c0-1.9,0.4-3.6,1.1-5c0.8-1.4,1.8-2.5,3-3.3c1.3-0.8,2.6-1.1,4-1.1
		c1.4,0,2.7,0.3,3.9,1c1.2,0.7,2.2,1.6,3,2.9c0.8,1.3,1.2,2.8,1.2,4.5C362.8,242.4,362.7,242.7,362.5,242.9z M350.9,237.3
		c-1.2,0.9-1.9,2.3-2.2,4h11.9V241c-0.1-1-0.5-2-1-2.7c-0.6-0.8-1.3-1.4-2.2-1.8c-0.9-0.4-1.8-0.6-2.7-0.6
		C353.3,235.9,352.1,236.3,350.9,237.3z"/>
	<path class="st0" d="M381.3,234.6c0.2,0.2,0.3,0.4,0.3,0.8v9.9c0,2.3-0.6,4-1.9,5.3c-1.3,1.2-3.1,1.8-5.3,1.8c-2.2,0-4-0.6-5.3-1.8
		c-1.3-1.2-1.9-3-1.9-5.3v-9.9c0-0.3,0.1-0.6,0.3-0.8c0.2-0.2,0.4-0.3,0.8-0.3c0.3,0,0.6,0.1,0.8,0.3c0.2,0.2,0.3,0.4,0.3,0.8v9.9
		c0,1.7,0.4,3,1.3,3.8c0.9,0.9,2.1,1.3,3.7,1.3c1.6,0,2.9-0.4,3.8-1.3c0.9-0.9,1.3-2.2,1.3-3.8v-9.9c0-0.3,0.1-0.6,0.3-0.8
		c0.2-0.2,0.4-0.3,0.8-0.3C380.8,234.4,381.1,234.5,381.3,234.6z"/>
	<path class="st0" d="M400.3,235.7c1,1.3,1.5,3,1.5,5.1v10.3c0,0.3-0.1,0.6-0.3,0.8c-0.2,0.2-0.5,0.3-0.7,0.3
		c-0.3,0-0.6-0.1-0.8-0.3c-0.2-0.2-0.3-0.4-0.3-0.8v-10.2c0-1.5-0.4-2.7-1.1-3.7c-0.8-0.9-1.9-1.4-3.5-1.4c-1,0-2,0.2-2.9,0.7
		c-0.9,0.5-1.6,1.1-2.2,1.9c-0.6,0.8-0.8,1.6-0.8,2.5v10.2c0,0.3-0.1,0.6-0.3,0.8c-0.2,0.2-0.4,0.3-0.8,0.3c-0.3,0-0.6-0.1-0.8-0.3
		c-0.2-0.2-0.3-0.4-0.3-0.8v-15.7c0-0.3,0.1-0.6,0.3-0.8c0.2-0.2,0.4-0.3,0.8-0.3c0.3,0,0.6,0.1,0.8,0.3c0.2,0.2,0.3,0.4,0.3,0.8
		v1.9c0.6-1,1.5-1.8,2.7-2.5c1.2-0.7,2.4-1,3.6-1C397.6,233.8,399.2,234.5,400.3,235.7z"/>
	<path class="st0" d="M406,248.5c0-0.3,0.2-0.5,0.5-0.7c0.1-0.1,0.3-0.2,0.6-0.2c0.3,0,0.5,0.1,0.8,0.3c1.4,1.8,3.2,2.7,5.5,2.7
		c1.1,0,2.1-0.3,2.9-0.8c0.8-0.5,1.2-1.3,1.2-2.3c0-1-0.4-1.7-1.2-2.2c-0.8-0.5-1.8-0.9-3.2-1.3c-1.9-0.5-3.5-1.1-4.5-1.9
		c-1.1-0.8-1.6-1.9-1.6-3.4c0-1,0.3-1.8,0.8-2.6c0.5-0.8,1.3-1.3,2.2-1.8c0.9-0.4,2-0.6,3.1-0.6c1,0,2,0.2,3,0.6
		c1,0.4,1.9,1,2.6,1.8c0.2,0.2,0.3,0.4,0.3,0.7c0,0.3-0.1,0.5-0.4,0.7c-0.2,0.1-0.4,0.2-0.6,0.2c-0.2,0-0.4-0.1-0.6-0.3
		c-0.6-0.6-1.2-1.1-2-1.4c-0.8-0.3-1.6-0.5-2.5-0.5c-1.1,0-2,0.3-2.8,0.8c-0.8,0.5-1.2,1.3-1.2,2.3c0,0.9,0.5,1.6,1.3,2.1
		c0.8,0.5,2,0.9,3.6,1.3c1.2,0.3,2.2,0.6,3,1c0.8,0.4,1.4,0.9,1.9,1.6c0.5,0.7,0.8,1.6,0.8,2.7c0,1.5-0.6,2.7-1.8,3.6
		c-1.2,0.9-2.7,1.3-4.5,1.3c-2.8,0-5.1-1.1-6.8-3.2C406.1,249,406,248.7,406,248.5z"/>
	<path class="st0" d="M349.9,270c0.3,0.3,0.5,0.7,0.5,1.1c0,0.2-0.1,0.5-0.2,0.8l-8.9,21.1c-0.2,0.4-0.4,0.6-0.7,0.8
		c-0.3,0.2-0.6,0.3-0.9,0.3c-0.3,0-0.6-0.1-0.9-0.3c-0.3-0.2-0.5-0.4-0.6-0.8l-8.9-21.1c-0.1-0.2-0.1-0.4-0.1-0.7
		c0-0.5,0.2-0.9,0.5-1.2c0.4-0.3,0.7-0.5,1.2-0.5c0.7,0,1.2,0.4,1.5,1.1l7.6,18l7.2-18c0.2-0.3,0.4-0.6,0.6-0.8
		c0.3-0.2,0.6-0.3,0.9-0.3C349.2,269.6,349.6,269.7,349.9,270z"/>
	<path class="st0" d="M354,272.9c-0.3-0.2-0.4-0.6-0.4-1.2v-0.6c0-0.6,0.2-1,0.5-1.2c0.3-0.2,0.8-0.3,1.5-0.3s1.1,0.1,1.4,0.4
		c0.3,0.2,0.4,0.6,0.4,1.2v0.6c0,0.6-0.2,1-0.5,1.2c-0.3,0.2-0.8,0.4-1.4,0.4C354.8,273.3,354.3,273.2,354,272.9z M356.7,293.6
		c-0.3,0.3-0.7,0.5-1.2,0.5c-0.5,0-0.9-0.2-1.2-0.5c-0.3-0.3-0.5-0.7-0.5-1.2v-15.1c0-0.5,0.2-0.9,0.5-1.2c0.3-0.3,0.7-0.5,1.2-0.5
		c0.5,0,0.9,0.2,1.2,0.5c0.3,0.3,0.5,0.7,0.5,1.2v15.1C357.1,292.9,357,293.3,356.7,293.6z"/>
	<path class="st0" d="M372.6,275.8c0.4,0.3,0.7,0.7,0.7,1.2c0,0.6-0.1,1-0.4,1.3c-0.3,0.3-0.6,0.4-1.1,0.4c-0.2,0-0.5-0.1-0.9-0.2
		c-0.5-0.2-0.9-0.2-1.2-0.2c-0.7,0-1.4,0.3-2.1,0.8c-0.7,0.5-1.2,1.2-1.7,2.1c-0.4,0.9-0.6,1.8-0.6,2.9v8.4c0,0.5-0.2,0.9-0.5,1.2
		c-0.3,0.3-0.7,0.5-1.2,0.5s-0.9-0.2-1.2-0.5c-0.3-0.3-0.5-0.7-0.5-1.2v-15c0-0.5,0.2-0.9,0.5-1.2c0.3-0.3,0.7-0.5,1.2-0.5
		c0.5,0,0.9,0.2,1.2,0.5c0.3,0.3,0.5,0.7,0.5,1.2v1.8c0.5-1.1,1.3-2.1,2.3-2.8c1-0.7,2.2-1.1,3.5-1.1
		C371.7,275.3,372.2,275.5,372.6,275.8z"/>
	<path class="st0" d="M381.3,279v10.4c0,1.2,0.5,1.7,1.6,1.7c0.2,0,0.4,0,0.7-0.1c0.3-0.1,0.5-0.1,0.7-0.1c0.3,0,0.6,0.1,0.8,0.4
		c0.2,0.3,0.3,0.6,0.3,1c0,0.5-0.3,0.9-0.8,1.3c-0.6,0.3-1.2,0.5-1.9,0.5c-0.8,0-1.5-0.1-2.1-0.2c-0.6-0.2-1.2-0.6-1.7-1.2
		c-0.5-0.7-0.8-1.7-0.8-3V279h-2c-0.4,0-0.8-0.1-1.1-0.4c-0.3-0.3-0.4-0.7-0.4-1.1c0-0.4,0.1-0.8,0.4-1.1c0.3-0.3,0.7-0.4,1.1-0.4h2
		V273c0-0.5,0.2-0.9,0.5-1.2c0.3-0.3,0.7-0.5,1.2-0.5c0.5,0,0.9,0.2,1.2,0.5c0.3,0.3,0.5,0.7,0.5,1.2v2.9h2.9c0.4,0,0.8,0.1,1.1,0.4
		c0.3,0.3,0.4,0.7,0.4,1.1c0,0.4-0.1,0.8-0.4,1.1c-0.3,0.3-0.7,0.4-1.1,0.4H381.3z"/>
	<path class="st0" d="M404.5,276.3c0.3,0.3,0.5,0.7,0.5,1.2v9.3c0,2.4-0.7,4.3-2,5.6c-1.3,1.3-3.2,2-5.7,2c-2.4,0-4.3-0.7-5.6-2
		c-1.3-1.3-2-3.2-2-5.6v-9.3c0-0.5,0.2-0.9,0.5-1.2c0.3-0.3,0.7-0.5,1.2-0.5c0.5,0,0.9,0.2,1.2,0.5c0.3,0.3,0.5,0.7,0.5,1.2v9.3
		c0,3.1,1.4,4.6,4.3,4.6c1.4,0,2.5-0.4,3.3-1.2c0.7-0.8,1.1-1.9,1.1-3.4v-9.3c0-0.5,0.2-0.9,0.5-1.2c0.3-0.3,0.7-0.5,1.2-0.5
		C403.8,275.8,404.2,275.9,404.5,276.3z"/>
	<path class="st0" d="M426,276c0.3,0.3,0.5,0.7,0.5,1.2v15.2c0,0.5-0.2,0.9-0.5,1.2c-0.3,0.3-0.7,0.5-1.2,0.5
		c-0.5,0-0.9-0.2-1.2-0.5c-0.3-0.3-0.5-0.7-0.5-1.2v-0.9c-0.6,0.8-1.4,1.5-2.5,2.1c-1,0.6-2.2,0.9-3.4,0.9c-1.6,0-3-0.4-4.3-1.2
		c-1.3-0.8-2.3-2-3-3.4c-0.7-1.5-1.1-3.1-1.1-4.9c0-1.8,0.4-3.5,1.1-4.9c0.7-1.5,1.7-2.6,3-3.4c1.3-0.8,2.7-1.2,4.2-1.2
		c1.2,0,2.4,0.3,3.4,0.8c1.1,0.5,1.9,1.2,2.5,2v-0.8c0-0.5,0.2-0.9,0.5-1.2c0.3-0.3,0.7-0.5,1.2-0.5
		C425.3,275.5,425.7,275.7,426,276z M420.6,290.5c0.9-0.6,1.5-1.3,2-2.3c0.5-1,0.7-2.1,0.7-3.3c0-1.2-0.2-2.3-0.7-3.3
		c-0.5-1-1.1-1.8-2-2.3c-0.9-0.6-1.8-0.9-2.9-0.9c-1.1,0-2.1,0.3-2.9,0.8c-0.9,0.6-1.5,1.3-2,2.3c-0.5,1-0.7,2.1-0.7,3.3
		c0,1.2,0.2,2.3,0.7,3.3c0.5,1,1.1,1.7,2,2.3c0.9,0.6,1.8,0.8,2.9,0.8C418.8,291.4,419.8,291.1,420.6,290.5z"/>
	<path class="st0" d="M434.5,293.6c-0.3,0.3-0.7,0.5-1.2,0.5c-0.5,0-0.9-0.2-1.2-0.5c-0.3-0.3-0.5-0.7-0.5-1.2v-22.5
		c0-0.5,0.2-0.9,0.5-1.2s0.7-0.5,1.2-0.5c0.5,0,0.9,0.2,1.2,0.5s0.5,0.7,0.5,1.2v22.5C435,292.9,434.9,293.3,434.5,293.6z"/>
	<path class="st0" d="M472.8,270.1c0.3,0.3,0.5,0.7,0.5,1.2v21.2c0,0.5-0.2,0.9-0.5,1.2c-0.3,0.3-0.7,0.5-1.2,0.5
		c-0.5,0-0.9-0.2-1.3-0.5c-0.3-0.3-0.5-0.7-0.5-1.2v-16.2l-6.8,10.3c-0.2,0.2-0.4,0.4-0.6,0.5c-0.2,0.1-0.5,0.2-0.8,0.2
		c-0.2,0-0.5,0-0.7-0.2c-0.2-0.1-0.4-0.3-0.6-0.5l-6.8-10.6v16.5c0,0.5-0.1,0.9-0.4,1.2c-0.3,0.3-0.7,0.5-1.2,0.5
		c-0.5,0-0.8-0.2-1.1-0.5c-0.3-0.3-0.4-0.7-0.4-1.2v-21.2c0-0.4,0.2-0.8,0.5-1.2c0.3-0.3,0.7-0.5,1.2-0.5c0.3,0,0.6,0.1,0.8,0.2
		c0.3,0.1,0.5,0.3,0.6,0.6l8.3,12.6l8.4-12.6c0.4-0.5,0.8-0.8,1.4-0.8C472.1,269.6,472.5,269.8,472.8,270.1z"/>
	<path class="st0" d="M493.6,276.3c0.3,0.3,0.5,0.7,0.5,1.2v9.3c0,2.4-0.7,4.3-2,5.6c-1.3,1.3-3.2,2-5.7,2c-2.4,0-4.3-0.7-5.6-2
		c-1.3-1.3-2-3.2-2-5.6v-9.3c0-0.5,0.2-0.9,0.5-1.2c0.3-0.3,0.7-0.5,1.2-0.5c0.5,0,0.9,0.2,1.2,0.5c0.3,0.3,0.5,0.7,0.5,1.2v9.3
		c0,3.1,1.4,4.6,4.3,4.6c1.4,0,2.5-0.4,3.3-1.2c0.7-0.8,1.1-1.9,1.1-3.4v-9.3c0-0.5,0.2-0.9,0.5-1.2c0.3-0.3,0.7-0.5,1.2-0.5
		C492.9,275.8,493.3,275.9,493.6,276.3z"/>
	<path class="st0" d="M497.6,290.3c0-0.5,0.2-0.9,0.7-1.2c0.2-0.2,0.5-0.2,0.8-0.2c0.4,0,0.8,0.2,1.2,0.5c0.7,0.8,1.5,1.4,2.3,1.8
		c0.8,0.4,1.8,0.6,2.9,0.6c0.9,0,1.7-0.2,2.3-0.6c0.7-0.4,1-1,1-1.9c0-0.8-0.3-1.4-1-1.8c-0.7-0.4-1.7-0.8-3-1.2
		c-1.3-0.3-2.4-0.7-3.3-1.1c-0.9-0.4-1.6-0.9-2.2-1.7c-0.6-0.7-0.9-1.7-0.9-2.9c0-1,0.3-2,0.9-2.8c0.6-0.8,1.4-1.4,2.4-1.9
		c1-0.4,2.1-0.7,3.2-0.7c1.1,0,2.2,0.2,3.3,0.6c1.1,0.4,2,1.1,2.7,1.9c0.3,0.3,0.4,0.7,0.4,1c0,0.4-0.2,0.7-0.6,1.1
		c-0.2,0.2-0.5,0.3-0.9,0.3c-0.4,0-0.8-0.1-1-0.4c-0.5-0.6-1.1-1-1.8-1.3c-0.7-0.3-1.5-0.5-2.4-0.5c-0.9,0-1.6,0.2-2.3,0.5
		c-0.6,0.4-0.9,1-0.9,1.8c0,0.8,0.4,1.4,1.1,1.8c0.7,0.4,1.7,0.8,3.2,1.2c1.2,0.3,2.3,0.7,3.1,1s1.5,0.9,2.1,1.7
		c0.6,0.7,0.8,1.7,0.8,2.9c0,1.1-0.3,2-0.9,2.9c-0.6,0.8-1.5,1.4-2.5,1.9c-1,0.4-2.1,0.6-3.2,0.6c-1.5,0-2.8-0.3-4.1-0.8
		c-1.2-0.5-2.3-1.3-3.2-2.4C497.7,290.9,497.6,290.6,497.6,290.3z"/>
	<path class="st0" d="M531.3,285.3c-0.3,0.3-0.7,0.4-1.2,0.4h-12.3c0.2,1.7,0.8,3.1,1.9,4.1c1.1,1,2.5,1.5,4.1,1.5
		c1.1,0,2-0.2,2.7-0.5c0.7-0.3,1.3-0.7,1.9-1.3c0.4-0.2,0.7-0.3,1-0.3c0.4,0,0.7,0.1,1,0.4c0.3,0.3,0.4,0.6,0.4,1
		c0,0.5-0.2,0.9-0.7,1.3c-0.7,0.7-1.6,1.2-2.7,1.7c-1.1,0.5-2.3,0.7-3.4,0.7c-1.9,0-3.6-0.4-5-1.2c-1.4-0.8-2.5-1.9-3.3-3.3
		c-0.8-1.4-1.2-3-1.2-4.8c0-2,0.4-3.7,1.2-5.2c0.8-1.5,1.9-2.6,3.2-3.4c1.3-0.8,2.7-1.2,4.2-1.2c1.5,0,2.9,0.4,4.2,1.2
		c1.3,0.8,2.4,1.8,3.1,3.2c0.8,1.4,1.2,2.9,1.2,4.5C531.8,284.6,531.6,285,531.3,285.3z M519.8,279.5c-1,0.7-1.6,1.9-1.9,3.4h10.3
		v-0.3c-0.1-1.2-0.7-2.3-1.7-3c-1-0.8-2.1-1.2-3.4-1.2C521.9,278.4,520.8,278.8,519.8,279.5z"/>
	<path class="st0" d="M550.5,276.3c0.3,0.3,0.5,0.7,0.5,1.2v9.3c0,2.4-0.7,4.3-2,5.6c-1.3,1.3-3.2,2-5.7,2c-2.4,0-4.3-0.7-5.6-2
		c-1.3-1.3-2-3.2-2-5.6v-9.3c0-0.5,0.2-0.9,0.5-1.2c0.3-0.3,0.7-0.5,1.2-0.5c0.5,0,0.9,0.2,1.2,0.5c0.3,0.3,0.5,0.7,0.5,1.2v9.3
		c0,3.1,1.4,4.6,4.3,4.6c1.4,0,2.5-0.4,3.3-1.2c0.7-0.8,1.1-1.9,1.1-3.4v-9.3c0-0.5,0.2-0.9,0.5-1.2c0.3-0.3,0.7-0.5,1.2-0.5
		C549.8,275.8,550.2,275.9,550.5,276.3z"/>
	<path class="st0" d="M583.1,283.1v9.3c0,0.5-0.2,0.9-0.5,1.2c-0.3,0.3-0.7,0.5-1.2,0.5c-0.5,0-0.9-0.2-1.2-0.5
		c-0.3-0.3-0.5-0.7-0.5-1.2v-9.3c0-3.1-1.3-4.6-3.8-4.6c-0.9,0-1.7,0.2-2.5,0.6c-0.7,0.4-1.3,1-1.7,1.7c-0.4,0.7-0.6,1.5-0.6,2.3
		v9.3c0,0.5-0.2,0.9-0.5,1.2c-0.3,0.3-0.7,0.5-1.2,0.5c-0.5,0-0.9-0.2-1.2-0.5c-0.3-0.3-0.5-0.7-0.5-1.2v-9.3c0-1.4-0.3-2.5-0.9-3.3
		c-0.6-0.8-1.6-1.2-2.9-1.2c-1.4,0-2.5,0.4-3.4,1.3c-0.9,0.9-1.3,2-1.3,3.2v9.3c0,0.5-0.2,0.9-0.5,1.2c-0.3,0.3-0.7,0.5-1.2,0.5
		c-0.5,0-0.9-0.2-1.2-0.5c-0.3-0.3-0.5-0.7-0.5-1.2v-15c0-0.5,0.2-0.9,0.5-1.2c0.3-0.3,0.7-0.5,1.2-0.5c0.5,0,0.9,0.2,1.2,0.5
		c0.3,0.3,0.5,0.7,0.5,1.2v1.2c0.6-0.9,1.4-1.7,2.4-2.3c1-0.6,2.1-0.9,3.3-0.9c2.9,0,4.8,1.3,5.6,3.8c0.5-1,1.4-1.9,2.6-2.7
		c1.2-0.8,2.4-1.2,3.8-1.2C581,275.5,583.1,278,583.1,283.1z"/>
</g>
</svg>
