<?xml version="1.0" encoding="UTF-8"?>
<svg id="Layer_1" data-name="Layer 1" xmlns="http://www.w3.org/2000/svg" viewBox="0 0 663.7 175.77">
  <defs>
    <style>
      .cls-1, .cls-2 {
        isolation: isolate;
      }

      .cls-3 {
        stroke-width: 0px;
      }

      .cls-3, .cls-2 {
        fill: #0b1117;
      }

      .cls-2 {
        font-family: Quicksand-Light, Quicksand;
        font-size: 36px;
        font-weight: 300;
      }
    </style>
  </defs>
  <g>
    <path class="cls-3" d="M259.07,50.34c-.11,1.89-.17,3.49-.23,5.27H43.02c-.06-1.72-.17-3.32-.23-5.27h216.28Z"/>
    <path class="cls-3" d="M46.29,66.66c4.24-.06,8.42,0,12.65-.23,2.35-.11,3.09.8,3.09,3.15-.06,17.57,0,35.15,0,52.72v23.18h-15.28v-3.95c0-23.41,0-46.83-.11-70.24,0-1.6-.11-3.21-.23-4.81l-.11.11v.06Z"/>
    <path class="cls-3" d="M100.44,66.6v78.94h-15.4v-78.94l-.11.11h15.57l-.11-.11h.06Z"/>
    <path class="cls-3" d="M256.61,67.34c-.17,1.49-.52,2.92-.52,4.41v73.79h-14.83v-79.06c5.09.46,10.3-1.14,15.46.97v-.11h-.11Z"/>
    <path class="cls-3" d="M138.63,66.43c0,26.05,0,52.04.06,78.08,0,.29-.11.57-.17,1.09h-14.65v-79.06h14.88l-.11-.11Z"/>
    <path class="cls-3" d="M178.47,66.37c.11.8.29,1.6.29,2.35v73.9c0,.92-.11,1.77-.17,2.92h-14.94v-79.06h14.88l-.11-.11h.06Z"/>
    <path class="cls-3" d="M217.11,66.37c0,1.6.11,3.21.11,4.81v74.36h-14.77v-79.06h14.71l-.11-.11h.06Z"/>
    <path class="cls-3" d="M.38,172.33h307.47c2.18,0,4.29-.17,3.15,3.26-.69.06-1.49.17-2.29.17-100.64,0-201.22,0-301.86-.06-1.43,0-2.81-.11-4.24,0-2.4.17-3.09-.86-2.29-3.38h.06Z"/>
    <path class="cls-3" d="M43.31,47.19c-.97-2.86,0-3.61,2.63-3.61,70.01,0,139.97,0,209.98.06.8,0,1.6.06,2.58.11v3.38H43.31v.06Z"/>
    <path class="cls-3" d="M26.48,159.22h256.92v3.03H29.8c-1.89,0-4.41.57-3.32-3.09v.06Z"/>
    <path class="cls-3" d="M234.86,152.64c1.6-.23,2.86-.34,4.24-.52-.8-1.43-1.49-2.63-2.46-4.35h23.24c-.4,1.43-.74,2.75-1.2,4.35.8.11,1.95.23,3.21.4v3.38h-26.79c-.06-1.03-.11-2-.23-3.26Z"/>
    <path class="cls-3" d="M40.79,155.85v-3.26c1.43-.17,2.63-.34,3.95-.52-.8-1.43-1.43-2.52-2.4-4.18h23.64c-.63,1.49-1.09,2.75-1.72,4.18.86.17,2,.34,3.26.57v3.21h-26.79.06Z"/>
    <path class="cls-3" d="M117.9,155.85v-3.32c1.37-.11,2.63-.23,4.06-.34-.86-1.43-1.55-2.63-2.58-4.47h21.52c.63,0,1.89.69,1.83.86-.23,1.09-.69,2.18-1.2,3.49.86.11,1.89.29,3.26.46,0,.92.11,1.95.17,3.26h-27.08v.06Z"/>
    <path class="cls-3" d="M223.12,155.96h-26.79c0-1.09-.11-2.12-.17-3.32,1.49-.17,2.69-.29,4.24-.52-.8-1.37-1.55-2.52-2.58-4.24h23.3c-.29,1.26-.63,2.58-1.03,4.35.63.06,1.72.17,3.03.29v3.43Z"/>
    <path class="cls-3" d="M104.68,147.89c-.63,1.49-1.14,2.69-1.77,4.18.8.11,1.95.29,3.21.52,0,.92.11,1.89.17,3.21h-26.96c-.06-.92-.17-1.95-.23-3.21,1.43-.17,2.69-.29,4.24-.46-.74-1.37-1.43-2.58-2.4-4.24h23.76Z"/>
    <path class="cls-3" d="M157.69,152.53c1.37-.11,2.58-.23,3.89-.34-.74-1.37-1.43-2.58-2.4-4.29h23.3c-.4,1.37-.74,2.69-1.2,4.35.74.06,1.83.17,3.15.29v3.38h-26.79v-3.32l.06-.06Z"/>
    <path class="cls-3" d="M216.71,31.68H87.91c.8-.46,1.26-.8,1.83-.97,20.78-7.79,41.5-15.63,62.34-23.36,1.14-.4,2.63-.63,3.66-.23,20.38,7.9,40.7,15.97,61.08,23.99,0,.23,0,.4-.06.63l-.06-.06Z"/>
    <path class="cls-3" d="M65.81,39.69c5.84-2.35,10.76-4.52,16.49-4.52,47.06.11,94.17,0,141.23.23,4.58,0,9.1,2.18,13.68,3.32-.06.34-.17.63-.23.97H65.81Z"/>
    <path class="cls-3" d="M46.23,39.69c19.41-7.21,38.76-14.43,58.16-21.64,15.91-5.9,31.77-11.85,47.74-17.69,1.26-.46,3.03-.52,4.24,0,32.92,12.88,65.78,25.88,98.69,38.81.57.23,1.09.46,1.6.92-3.89.34-7.56.23-11.45-1.32-23.36-9.5-46.83-18.66-70.24-27.94-6.18-2.46-12.31-4.98-18.49-7.27-1.26-.46-2.98-.63-4.18-.17-32.17,11.96-64.34,24.16-96.52,36.07-2.86,1.09-6.24.92-9.33,1.32,0-.34,0-.63-.06-.97l-.17-.11Z"/>
    <g>
      <circle class="cls-3" cx="239.31" cy="62.07" r="5"/>
      <circle class="cls-3" cx="258.31" cy="62.07" r="5"/>
    </g>
    <g>
      <circle class="cls-3" cx="200.31" cy="62.07" r="5"/>
      <circle class="cls-3" cx="219.31" cy="62.07" r="5"/>
    </g>
    <g>
      <circle class="cls-3" cx="161.31" cy="62.07" r="5"/>
      <circle class="cls-3" cx="180.31" cy="62.07" r="5"/>
    </g>
    <g>
      <circle class="cls-3" cx="122.31" cy="62.07" r="5"/>
      <circle class="cls-3" cx="141.31" cy="62.07" r="5"/>
    </g>
    <g>
      <circle class="cls-3" cx="83.31" cy="62.07" r="5"/>
      <circle class="cls-3" cx="102.31" cy="62.07" r="5"/>
    </g>
    <g>
      <circle class="cls-3" cx="44.31" cy="62.07" r="5"/>
      <circle class="cls-3" cx="63.31" cy="62.07" r="5"/>
    </g>
  </g>
  <g id="Teuns_Virtual_Museum" data-name="Teuns Virtual Museum" class="cls-1">
    <text class="cls-2" transform="translate(352.8 98.41)"><tspan x="0" y="0"> </tspan></text>
  </g>
  <g>
    <path class="cls-3" d="M340.64,50.01c.27.26.41.59.41,1.01s-.14.74-.41.98c-.27.24-.62.36-1.03.36h-9.94v29.42c0,.42-.14.76-.43,1.03-.29.27-.64.41-1.06.41-.45,0-.81-.14-1.08-.41-.27-.27-.41-.62-.41-1.03v-29.42h-9.94c-.42,0-.76-.13-1.03-.38-.27-.26-.41-.59-.41-1.01,0-.38.14-.7.41-.96.27-.26.62-.38,1.03-.38h22.85c.42,0,.76.13,1.03.38Z"/>
    <path class="cls-3" d="M361.01,70.53c-.29.27-.62.41-1.01.41h-18.14c0,1.92.39,3.64,1.18,5.16.78,1.52,1.9,2.72,3.36,3.6,1.46.88,3.17,1.32,5.16,1.32,1.54,0,2.91-.32,4.13-.96,1.22-.64,2.19-1.46,2.93-2.45.35-.29.69-.43,1.01-.43s.61.13.86.38c.26.26.38.54.38.86,0,.35-.16.69-.48,1.01-1.02,1.25-2.31,2.27-3.86,3.07-1.55.8-3.19,1.2-4.92,1.2-2.46,0-4.64-.53-6.53-1.58-1.89-1.06-3.36-2.54-4.42-4.44-1.06-1.9-1.58-4.1-1.58-6.6,0-2.62.52-4.92,1.56-6.89,1.04-1.97,2.42-3.47,4.15-4.51,1.73-1.04,3.57-1.56,5.52-1.56s3.72.45,5.4,1.34c1.68.9,3.05,2.21,4.1,3.94,1.06,1.73,1.6,3.78,1.63,6.14,0,.38-.14.71-.43.98ZM345.15,62.82c-1.58,1.28-2.6,3.12-3.05,5.52h16.37v-.38c-.16-1.44-.64-2.7-1.44-3.77-.8-1.07-1.8-1.89-3-2.45-1.2-.56-2.44-.84-3.72-.84-1.86,0-3.58.64-5.16,1.92Z"/>
    <path class="cls-3" d="M386.77,59.24c.27.27.41.62.41,1.03v13.54c0,3.14-.88,5.54-2.64,7.22-1.76,1.68-4.19,2.52-7.3,2.52s-5.48-.84-7.22-2.52c-1.75-1.68-2.62-4.09-2.62-7.22v-13.54c0-.42.14-.76.41-1.03s.62-.41,1.03-.41.76.14,1.03.41c.27.27.41.62.41,1.03v13.54c0,2.3.61,4.06,1.82,5.26,1.22,1.2,2.93,1.8,5.14,1.8s3.98-.6,5.21-1.8c1.23-1.2,1.85-2.95,1.85-5.26v-13.54c0-.42.14-.76.41-1.03.27-.27.62-.41,1.03-.41s.76.14,1.03.41Z"/>
    <path class="cls-3" d="M412.83,60.73c1.39,1.74,2.09,4.06,2.09,6.94v14.11c0,.42-.14.76-.43,1.03-.29.27-.62.41-1.01.41-.42,0-.76-.14-1.03-.41-.27-.27-.41-.62-.41-1.03v-13.97c0-2.08-.52-3.77-1.56-5.06-1.04-1.3-2.65-1.94-4.82-1.94-1.38,0-2.68.32-3.91.96-1.23.64-2.23,1.5-3,2.57-.77,1.07-1.15,2.23-1.15,3.48v13.97c0,.42-.14.76-.41,1.03-.27.27-.62.41-1.03.41s-.76-.14-1.03-.41c-.27-.27-.41-.62-.41-1.03v-21.5c0-.42.14-.76.41-1.03s.62-.41,1.03-.41.76.14,1.03.41c.27.27.41.62.41,1.03v2.64c.86-1.38,2.1-2.52,3.72-3.43,1.62-.91,3.27-1.37,4.97-1.37,2.98,0,5.16.87,6.55,2.62Z"/>
    <path class="cls-3" d="M420.68,78.28c0-.42.21-.74.62-.96.19-.19.45-.29.77-.29.38,0,.74.16,1.06.48,1.89,2.5,4.4,3.74,7.54,3.74,1.54,0,2.87-.36,4.01-1.08,1.14-.72,1.7-1.77,1.7-3.14s-.53-2.35-1.58-3.02c-1.06-.67-2.53-1.25-4.42-1.73-2.66-.67-4.74-1.54-6.24-2.62-1.5-1.07-2.26-2.65-2.26-4.73,0-1.31.37-2.49,1.1-3.53.74-1.04,1.74-1.85,3-2.42,1.26-.58,2.7-.86,4.3-.86,1.38,0,2.76.26,4.15.79,1.39.53,2.58,1.37,3.58,2.52.29.22.43.54.43.96,0,.38-.16.72-.48,1.01-.22.19-.51.29-.86.29-.32,0-.61-.13-.86-.38-.77-.86-1.68-1.52-2.74-1.97-1.06-.45-2.19-.67-3.41-.67-1.5,0-2.79.35-3.86,1.06-1.07.7-1.61,1.76-1.61,3.17.06,1.28.65,2.26,1.75,2.93,1.1.67,2.73,1.28,4.87,1.82,1.66.42,3.04.88,4.13,1.39,1.09.51,1.98,1.23,2.66,2.16.69.93,1.03,2.16,1.03,3.7,0,2.08-.83,3.74-2.5,4.97-1.66,1.23-3.73,1.85-6.19,1.85-3.9,0-7.01-1.46-9.31-4.37-.26-.42-.38-.77-.38-1.06Z"/>
    <path class="cls-3" d="M343.76,107.8c.46.42.7.93.7,1.54,0,.32-.08.67-.24,1.06l-12.24,28.94c-.22.48-.54.85-.96,1.1-.42.26-.85.38-1.3.38-.42-.03-.81-.17-1.18-.41-.37-.24-.67-.58-.89-1.03l-12.24-28.99c-.13-.26-.19-.59-.19-1.01,0-.67.24-1.21.72-1.63.48-.42,1.01-.62,1.58-.62.96,0,1.66.51,2.11,1.54l10.46,24.72,9.89-24.77c.22-.45.52-.8.89-1.06.37-.26.78-.38,1.22-.38.64,0,1.19.21,1.66.62Z"/>
    <path class="cls-3" d="M349.37,111.76c-.4-.34-.6-.87-.6-1.61v-.77c0-.77.22-1.31.65-1.63.43-.32,1.1-.48,1.99-.48s1.54.17,1.94.5c.4.34.6.87.6,1.61v.77c0,.77-.21,1.31-.62,1.63-.42.32-1.07.48-1.97.48s-1.59-.17-1.99-.5ZM353.02,140.15c-.43.45-.98.67-1.66.67s-1.18-.22-1.61-.67c-.43-.45-.65-.99-.65-1.63v-20.78c0-.64.22-1.18.65-1.63.43-.45.97-.67,1.61-.67s1.22.22,1.66.67.65.99.65,1.63v20.78c0,.64-.22,1.18-.65,1.63Z"/>
    <path class="cls-3" d="M374.93,115.74c.61.43.91.97.91,1.61,0,.77-.2,1.35-.6,1.75-.4.4-.89.6-1.46.6-.29,0-.72-.1-1.3-.29-.67-.22-1.2-.34-1.58-.34-.99,0-1.96.34-2.9,1.03-.94.69-1.71,1.63-2.3,2.83-.59,1.2-.89,2.54-.89,4.01v11.57c0,.64-.22,1.18-.65,1.63-.43.45-.98.67-1.66.67s-1.22-.22-1.63-.65c-.42-.43-.62-.98-.62-1.66v-20.54c0-.64.22-1.18.65-1.63.43-.45.97-.67,1.61-.67s1.22.22,1.66.67c.43.45.65.99.65,1.63v2.45c.7-1.57,1.76-2.84,3.17-3.82,1.41-.98,3.01-1.48,4.8-1.51.83,0,1.55.22,2.16.65Z"/>
    <path class="cls-3" d="M386.88,120.13v14.3c0,1.6.72,2.4,2.16,2.4.22,0,.53-.05.91-.17.38-.11.69-.17.91-.17.42,0,.77.18,1.06.53.29.35.43.8.43,1.34,0,.67-.38,1.25-1.15,1.73-.77.48-1.63.72-2.59.72-1.06,0-2.02-.11-2.9-.34-.88-.22-1.66-.79-2.35-1.7-.69-.91-1.03-2.3-1.03-4.15v-14.5h-2.78c-.61,0-1.11-.2-1.51-.6-.4-.4-.6-.9-.6-1.51s.2-1.1.6-1.49c.4-.38.9-.58,1.51-.58h2.78v-4.03c0-.64.22-1.18.65-1.63.43-.45.98-.67,1.66-.67s1.18.22,1.61.67c.43.45.65.99.65,1.63v4.03h3.98c.61,0,1.11.2,1.51.6s.6.9.6,1.51-.2,1.1-.6,1.49c-.4.38-.9.58-1.51.58h-3.98Z"/>
    <path class="cls-3" d="M418.68,116.34c.43.45.65.99.65,1.63v12.77c0,3.33-.92,5.91-2.76,7.75s-4.44,2.76-7.8,2.76-5.9-.92-7.73-2.76c-1.82-1.84-2.74-4.42-2.74-7.75v-12.77c0-.64.22-1.18.65-1.63.43-.45.97-.67,1.61-.67s1.22.22,1.66.67c.43.45.65.99.65,1.63v12.77c0,4.19,1.97,6.29,5.9,6.29,1.95,0,3.44-.53,4.46-1.58,1.02-1.06,1.54-2.62,1.54-4.7v-12.77c0-.64.22-1.18.65-1.63.43-.45.97-.67,1.61-.67s1.22.22,1.66.67Z"/>
    <path class="cls-3" d="M448.2,115.98c.43.43.65,1,.65,1.7v20.83c0,.64-.22,1.18-.65,1.63-.43.45-.98.67-1.66.67s-1.22-.22-1.63-.65c-.42-.43-.62-.98-.62-1.66v-1.25c-.83,1.12-1.97,2.07-3.41,2.86-1.44.78-2.99,1.18-4.66,1.18-2.18,0-4.15-.56-5.93-1.68-1.78-1.12-3.17-2.68-4.18-4.68s-1.51-4.25-1.51-6.74.5-4.74,1.51-6.74c1.01-2,2.39-3.56,4.15-4.68,1.76-1.12,3.7-1.68,5.81-1.68,1.7,0,3.27.35,4.73,1.06,1.46.7,2.62,1.6,3.48,2.69v-1.15c0-.67.21-1.23.62-1.68.42-.45.96-.67,1.63-.67s1.22.22,1.66.65ZM440.76,135.92c1.17-.77,2.08-1.82,2.74-3.17.66-1.34.98-2.86.98-4.56s-.33-3.17-.98-4.51c-.66-1.34-1.57-2.41-2.74-3.19-1.17-.78-2.5-1.18-4.01-1.18s-2.84.38-4.01,1.15c-1.17.77-2.08,1.82-2.74,3.17-.66,1.34-.98,2.86-.98,4.56s.33,3.22.98,4.56c.66,1.34,1.57,2.4,2.74,3.17,1.17.77,2.5,1.15,4.01,1.15s2.84-.38,4.01-1.15Z"/>
    <path class="cls-3" d="M459.89,140.15c-.45.45-.99.67-1.63.67s-1.18-.22-1.61-.67c-.43-.45-.65-.99-.65-1.63v-30.91c0-.64.22-1.18.67-1.63s.99-.67,1.63-.67,1.18.22,1.61.67.65.99.65,1.63v30.91c0,.64-.22,1.18-.67,1.63Z"/>
    <path class="cls-3" d="M512.45,107.87c.45.43.67.97.67,1.61v29.04c0,.64-.22,1.18-.65,1.63-.43.45-1,.67-1.7.67s-1.28-.22-1.73-.65c-.45-.43-.67-.98-.67-1.66v-22.22l-9.31,14.11c-.22.29-.5.53-.84.72-.34.19-.68.27-1.03.24-.32.03-.65-.05-.98-.24-.34-.19-.62-.43-.84-.72l-9.36-14.54v22.66c0,.67-.2,1.22-.6,1.66-.4.43-.94.65-1.61.65s-1.16-.22-1.56-.65c-.4-.43-.6-.98-.6-1.66v-29.04c0-.61.22-1.14.67-1.61.45-.46,1.01-.7,1.68-.7.38,0,.76.1,1.13.29.37.19.66.45.89.77l11.38,17.23,11.52-17.23c.51-.7,1.15-1.06,1.92-1.06.64.03,1.18.26,1.63.7Z"/>
    <path class="cls-3" d="M540.89,116.34c.43.45.65.99.65,1.63v12.77c0,3.33-.92,5.91-2.76,7.75s-4.44,2.76-7.8,2.76-5.9-.92-7.73-2.76c-1.82-1.84-2.74-4.42-2.74-7.75v-12.77c0-.64.22-1.18.65-1.63.43-.45.97-.67,1.61-.67s1.22.22,1.66.67c.43.45.65.99.65,1.63v12.77c0,4.19,1.97,6.29,5.9,6.29,1.95,0,3.44-.53,4.46-1.58,1.02-1.06,1.54-2.62,1.54-4.7v-12.77c0-.64.22-1.18.65-1.63.43-.45.97-.67,1.61-.67s1.22.22,1.66.67Z"/>
    <path class="cls-3" d="M546.48,135.59c0-.64.34-1.18,1.01-1.63.32-.22.69-.34,1.1-.34.58,0,1.1.24,1.58.72.96,1.09,1.99,1.9,3.1,2.45,1.1.54,2.42.82,3.96.82,1.22-.03,2.29-.31,3.22-.84.93-.53,1.39-1.38,1.39-2.57,0-1.09-.47-1.92-1.42-2.5-.94-.58-2.33-1.1-4.15-1.58-1.79-.48-3.28-.98-4.46-1.51-1.18-.53-2.18-1.3-3-2.3-.82-1.01-1.22-2.33-1.22-3.96,0-1.44.41-2.7,1.22-3.79.82-1.09,1.9-1.94,3.26-2.54,1.36-.61,2.84-.91,4.44-.91s3.06.29,4.58.86c1.52.58,2.76,1.46,3.72,2.64.38.45.58.91.58,1.39,0,.51-.26,1.01-.77,1.49-.32.29-.72.43-1.2.43-.58,0-1.04-.19-1.39-.58-.67-.77-1.5-1.36-2.47-1.78-.98-.42-2.06-.62-3.24-.62s-2.25.25-3.1.74c-.85.5-1.27,1.34-1.27,2.52.03,1.12.52,1.95,1.46,2.5.94.54,2.39,1.07,4.34,1.58,1.7.45,3.1.93,4.22,1.44s2.06,1.27,2.83,2.28c.77,1.01,1.15,2.33,1.15,3.96,0,1.5-.43,2.81-1.3,3.91-.86,1.1-1.99,1.95-3.38,2.54-1.39.59-2.87.89-4.44.89-2.02,0-3.88-.35-5.59-1.06-1.71-.7-3.16-1.82-4.34-3.36-.29-.45-.43-.88-.43-1.3Z"/>
    <path class="cls-3" d="M592.61,128.75c-.45.4-.98.6-1.58.6h-16.9c.22,2.34,1.11,4.21,2.66,5.62,1.55,1.41,3.45,2.11,5.69,2.11,1.54,0,2.78-.22,3.74-.67.96-.45,1.81-1.02,2.54-1.73.48-.29.94-.43,1.39-.43.54,0,1,.19,1.37.58.37.38.55.83.55,1.34,0,.67-.32,1.28-.96,1.82-.93.93-2.16,1.71-3.7,2.35-1.54.64-3.1.96-4.7.96-2.59,0-4.87-.54-6.84-1.63-1.97-1.09-3.49-2.61-4.56-4.56-1.07-1.95-1.61-4.16-1.61-6.62,0-2.69.55-5.05,1.66-7.08,1.1-2.03,2.56-3.59,4.37-4.68,1.81-1.09,3.75-1.63,5.83-1.63s3.97.53,5.76,1.58c1.79,1.06,3.23,2.51,4.32,4.37,1.09,1.86,1.65,3.94,1.68,6.24-.03.58-.27,1.06-.72,1.46ZM576.91,120.83c-1.31,1.01-2.18,2.57-2.59,4.68h14.16v-.38c-.16-1.7-.92-3.09-2.28-4.18-1.36-1.09-2.9-1.63-4.63-1.63s-3.34.5-4.66,1.51Z"/>
    <path class="cls-3" d="M618.98,116.34c.43.45.65.99.65,1.63v12.77c0,3.33-.92,5.91-2.76,7.75s-4.44,2.76-7.8,2.76-5.9-.92-7.73-2.76c-1.82-1.84-2.74-4.42-2.74-7.75v-12.77c0-.64.22-1.18.65-1.63.43-.45.97-.67,1.61-.67s1.22.22,1.66.67c.43.45.65.99.65,1.63v12.77c0,4.19,1.97,6.29,5.9,6.29,1.95,0,3.44-.53,4.46-1.58,1.02-1.06,1.54-2.62,1.54-4.7v-12.77c0-.64.22-1.18.65-1.63.43-.45.97-.67,1.61-.67s1.22.22,1.66.67Z"/>
    <path class="cls-3" d="M663.7,125.7v12.82c0,.67-.21,1.22-.62,1.66-.42.43-.96.65-1.63.65s-1.22-.22-1.66-.67c-.43-.45-.65-.99-.65-1.63v-12.77c0-4.19-1.76-6.29-5.28-6.29-1.25,0-2.38.28-3.38.84-1.01.56-1.79,1.32-2.35,2.28-.56.96-.84,2.02-.84,3.17v12.77c0,.64-.22,1.18-.65,1.63-.43.45-.98.67-1.66.67s-1.22-.22-1.63-.65c-.42-.43-.62-.98-.62-1.66v-12.82c0-1.89-.4-3.4-1.2-4.54-.8-1.13-2.13-1.7-3.98-1.7s-3.45.6-4.68,1.8c-1.23,1.2-1.85,2.68-1.85,4.44v12.82c0,.64-.22,1.18-.65,1.63-.43.45-.98.67-1.66.67s-1.22-.22-1.63-.65c-.42-.43-.62-.98-.62-1.66v-20.54c0-.64.22-1.18.65-1.63.43-.45.97-.67,1.61-.67s1.22.22,1.66.67c.43.45.65.99.65,1.63v1.68c.83-1.25,1.94-2.3,3.34-3.14,1.39-.85,2.9-1.27,4.54-1.27,3.97,0,6.54,1.76,7.73,5.28.7-1.34,1.87-2.56,3.5-3.65,1.63-1.09,3.36-1.63,5.18-1.63,5.6,0,8.4,3.49,8.4,10.46Z"/>
  </g>
</svg>