<?xml version="1.0" encoding="UTF-8"?>
<svg id="Layer_1" data-name="Layer 1" xmlns="http://www.w3.org/2000/svg" viewBox="0 0 54.37 30.72">
  <defs>
    <style>
      .cls-1 {
        fill: #0b1117;
        stroke-width: 0px;
      }
    </style>
  </defs>
  <path class="cls-1" d="M45.25,8.8c-.02.33-.03.61-.04.92H7.51c-.01-.3-.03-.58-.04-.92h37.78Z"/>
  <path class="cls-1" d="M8.08,11.65c.74-.01,1.47,0,2.21-.04.41-.02.54.14.54.55-.01,3.07,0,6.14,0,9.21,0,1.33,0,2.67,0,4.05h-2.67c0-.24,0-.46,0-.69,0-4.09,0-8.18-.02-12.27,0-.28-.02-.56-.04-.84l-.02.02Z"/>
  <path class="cls-1" d="M17.54,11.64v13.79h-2.69v-13.79l-.02.02c.91,0,1.82,0,2.72,0,0,0-.02-.02-.02-.02Z"/>
  <path class="cls-1" d="M44.82,11.77c-.03.26-.09.51-.09.77,0,4,0,8.01,0,12.01,0,.28,0,.56,0,.88h-2.59v-13.81c.89.08,1.8-.2,2.7.17v-.02Z"/>
  <path class="cls-1" d="M24.21,11.61c0,4.55,0,9.09.01,13.64,0,.05-.02.1-.03.19h-2.56v-13.81h2.6l-.02-.02Z"/>
  <path class="cls-1" d="M31.17,11.6c.02.14.05.28.05.41,0,4.3,0,8.61,0,12.91,0,.16-.02.31-.03.51h-2.61v-13.81h2.6l-.02-.02Z"/>
  <path class="cls-1" d="M37.92,11.6c0,.28.02.56.02.84,0,4.09,0,8.18,0,12.27,0,.23,0,.45,0,.72h-2.58v-13.81h2.57l-.02-.02Z"/>
  <path class="cls-1" d="M.06,30.11h.56c17.72,0,35.43,0,53.15,0,.38,0,.75-.03.55.57-.12.01-.26.03-.4.03-17.58,0-35.15,0-52.73-.01-.25,0-.49-.02-.74,0-.42.03-.54-.15-.4-.59Z"/>
  <path class="cls-1" d="M7.56,8.25c-.17-.5,0-.63.46-.63,12.23,0,24.45,0,36.68.01.14,0,.28.01.45.02v.59H7.56Z"/>
  <path class="cls-1" d="M4.62,27.82h44.88v.53c-.21,0-.4,0-.59,0-14.57,0-29.14,0-43.71,0-.33,0-.77.1-.58-.54Z"/>
  <path class="cls-1" d="M41.02,26.67c.28-.04.5-.06.74-.09-.14-.25-.26-.46-.43-.76h4.06c-.07.25-.13.48-.21.76.14.02.34.04.56.07v.59h-4.68c-.01-.18-.02-.35-.04-.57Z"/>
  <path class="cls-1" d="M7.12,27.23v-.57c.25-.03.46-.06.69-.09-.14-.25-.25-.44-.42-.73h4.13c-.11.26-.19.48-.3.73.15.03.35.06.57.1v.56h-4.68Z"/>
  <path class="cls-1" d="M20.59,27.23v-.58c.24-.02.46-.04.71-.06-.15-.25-.27-.46-.45-.78,1.35,0,2.55,0,3.76,0,.11,0,.33.12.32.15-.04.19-.12.38-.21.61.15.02.33.05.57.08,0,.16.02.34.03.57h-4.73Z"/>
  <path class="cls-1" d="M38.97,27.25h-4.68c0-.19-.02-.37-.03-.58.26-.03.47-.05.74-.09-.14-.24-.27-.44-.45-.74h4.07c-.05.22-.11.45-.18.76.11.01.3.03.53.05v.6Z"/>
  <path class="cls-1" d="M18.28,25.84c-.11.26-.2.47-.31.73.14.02.34.05.56.09,0,.16.02.33.03.56h-4.71c-.01-.16-.03-.34-.04-.56.25-.03.47-.05.74-.08-.13-.24-.25-.45-.42-.74h4.15Z"/>
  <path class="cls-1" d="M27.54,26.65c.24-.02.45-.04.68-.06-.13-.24-.25-.45-.42-.75h4.07c-.07.24-.13.47-.21.76.13.01.32.03.55.05v.59h-4.68v-.58Z"/>
  <path class="cls-1" d="M27,10.87c.03-.46.48-.82.95-.78.53.05.87.42.82.9-.05.48-.48.88-.91.84-.48-.04-.89-.5-.86-.96Z"/>
  <path class="cls-1" d="M34.66,11.84c-.47,0-.92-.43-.93-.89,0-.47.39-.85.88-.85.5,0,.91.38.9.84,0,.45-.44.91-.85.91Z"/>
  <path class="cls-1" d="M44.83,11.79c-.09-.15-.18-.3-.25-.45-.18-.39-.13-.77.2-1.04.32-.27.7-.31,1.06-.06.34.23.47.55.34.95-.13.42-.42.63-.85.63-.17,0-.34-.03-.51-.04,0,0,.02.02.02.02Z"/>
  <path class="cls-1" d="M11.42,10.09c.44-.01.87.37.89.79.02.49-.41.92-.93.93-.45,0-.83-.38-.85-.88-.02-.45.39-.83.89-.85Z"/>
  <path class="cls-1" d="M24.23,11.62c-.46-.76-.3-1.4.43-1.48.29-.03.72.14.89.36.15.2.13.69-.02.89-.17.23-.57.31-.89.4-.11.03-.28-.12-.42-.18,0,0,.02.02.02.02Z"/>
  <path class="cls-1" d="M14.85,11.64c-.65.31-1.24.16-1.44-.39-.14-.38-.07-.73.27-.98.38-.27.76-.21,1.12.03.35.24.35.58.23.93-.05.15-.13.28-.2.42,0,0,.02-.02.02-.02Z"/>
  <path class="cls-1" d="M17.54,11.64s.02.02.02.02c-.43-.72-.39-1.16.13-1.43.37-.19.8-.22,1.05.12.17.22.24.61.18.89-.09.41-.47.59-.9.55-.17-.01-.32-.1-.49-.16Z"/>
  <path class="cls-1" d="M20.86,10.1c.47-.01.9.34.92.76.02.46-.38.95-.79.97-.51.03-.97-.39-.97-.9,0-.44.37-.82.84-.84Z"/>
  <path class="cls-1" d="M42.3,10.92c0,.48-.44.94-.89.92-.48-.02-.88-.45-.87-.94,0-.46.38-.8.86-.8.52,0,.89.34.89.82Z"/>
  <path class="cls-1" d="M8.1,11.63c-.56.3-1.06.22-1.32-.22-.24-.39-.2-.77.15-1.08.31-.28.84-.31,1.16-.03.33.29.39.64.19,1.04-.06.11-.12.21-.19.31,0,0,.02-.02.02-.02Z"/>
  <path class="cls-1" d="M37.93,11.62c-.45-.77-.27-1.42.44-1.48.28-.02.68.12.85.33.15.18.18.63.05.84-.14.23-.5.38-.79.47-.16.05-.38-.11-.57-.18,0,0,.02.02.02.02Z"/>
  <path class="cls-1" d="M31.18,11.62c-.45-.76-.3-1.34.39-1.49.43-.09.77.05.98.43.22.38.09.73-.19,1-.37.34-.78.34-1.19.04,0,0,.02.02.02.02Z"/>
  <path class="cls-1" d="M37.85,5.54H15.35c.14-.08.22-.14.32-.17,3.63-1.36,7.25-2.73,10.89-4.08.2-.07.46-.11.64-.04,3.56,1.38,7.11,2.79,10.67,4.19,0,.04,0,.07-.01.11Z"/>
  <path class="cls-1" d="M11.49,6.94c1.02-.41,1.88-.79,2.88-.79,8.22.02,16.45,0,24.67.04.8,0,1.59.38,2.39.58-.01.06-.03.11-.04.17H11.49Z"/>
  <path class="cls-1" d="M8.07,6.94c3.39-1.26,6.77-2.52,10.16-3.78,2.78-1.03,5.55-2.07,8.34-3.09.22-.08.53-.09.74,0,5.75,2.25,11.49,4.52,17.24,6.78.1.04.19.08.28.16-.68.06-1.32.04-2-.23-4.08-1.66-8.18-3.26-12.27-4.88-1.08-.43-2.15-.87-3.23-1.27-.22-.08-.52-.11-.73-.03-5.62,2.09-11.24,4.22-16.86,6.3-.5.19-1.09.16-1.63.23,0-.06,0-.11-.01-.17Z"/>
</svg>
